<svg xmlns="http://www.w3.org/2000/svg" width="14" height="16" viewBox="0 0 14 16">
  <g fill="none" fill-rule="evenodd" transform="translate(-1)">
    <path fill="#2CA7F8" d="M8.5,0.288675135 L14.4282032,3.71132487 C14.7376043,3.88995766 14.9282032,4.22008468 14.9282032,4.57735027 L14.9282032,11.4226497 C14.9282032,11.7799153 14.7376043,12.1100423 14.4282032,12.2886751 L8.5,15.7113249 C8.19059892,15.8899577 7.80940108,15.8899577 7.5,15.7113249 L1.57179677,12.2886751 C1.26239569,12.1100423 1.07179677,11.7799153 1.07179677,11.4226497 L1.07179677,4.57735027 C1.07179677,4.22008468 1.26239569,3.88995766 1.57179677,3.71132487 L7.5,0.288675135 C7.80940108,0.11004234 8.19059892,0.11004234 8.5,0.288675135 Z"/>
    <path fill="#2CA7F8" d="M8.5,0.288675135 L14.4282032,3.71132487 C14.7376043,3.88995766 14.9282032,4.22008468 14.9282032,4.57735027 L14.9282032,11.4226497 C14.9282032,11.7799153 14.7376043,12.1100423 14.4282032,12.2886751 L8.5,15.7113249 C8.19059892,15.8899577 7.80940108,15.8899577 7.5,15.7113249 L1.57179677,12.2886751 C1.26239569,12.1100423 1.07179677,11.7799153 1.07179677,11.4226497 L1.07179677,4.57735027 C1.07179677,4.22008468 1.26239569,3.88995766 1.57179677,3.71132487 L7.5,0.288675135 C7.80940108,0.11004234 8.19059892,0.11004234 8.5,0.288675135 Z"/>
    <path fill="#FFF" fill-rule="nonzero" d="M3.39181818,5.70917316 C3.42855013,5.86484997 3.51800967,5.99750757 3.64051372,6.07795834 L7.34964883,8.6428594 L7.34964883,13.4645221 C7.34964883,13.8006425 7.58694308,14.0712732 7.88167761,14.0712732 C8.02285707,14.0715427 8.15832628,14.0077108 8.2581554,13.8938639 C8.35798451,13.7800171 8.41395692,13.6255256 8.41370638,13.4645221 L8.41370638,8.65037646 L12.2806284,6.12329878 C12.5233653,5.94956782 12.6021811,5.58803456 12.4590433,5.30489815 C12.3159055,5.02176173 12.0020629,4.91839572 11.7485997,5.07090914 L7.88167761,7.46646833 L4.17254249,5.02342097 C3.91731757,4.85830224 3.59308086,4.95901649 3.44653508,5.24893304 C3.37409128,5.38755474 3.35508623,5.55349635 3.39181818,5.70917316 Z"/>
  </g>
</svg>
