<?xml version="1.0" encoding="UTF-8"?>
<svg width="24px" height="24px" viewBox="0 0 24 24" version="1.1" xmlns="http://www.w3.org/2000/svg" xmlns:xlink="http://www.w3.org/1999/xlink">
    <title>wenti-2 copy</title>
    <g id="Page-1" stroke="none" stroke-width="1" fill="none" fill-rule="evenodd">
        <g id="应用详情-bug助手" transform="translate(-325.000000, -235.000000)" fill="#536076" fill-rule="nonzero">
            <g id="对话框" transform="translate(314.000000, 221.000000)">
                <g id="wenti-2-copy" transform="translate(11.000000, 14.000000)">
                    <path d="M11.9990653,0 C5.37177004,0.000516179657 -0.00034411307,5.37332774 0,12.0006231 C0.00034411307,18.6279184 5.37301619,24 12.0003115,24 C18.6276068,24 24,18.6272954 24,12 C23.9922734,5.37542129 18.6236446,0.00721068695 11.9990653,0 Z M11.9467248,17.547161 C11.2735886,17.5327811 10.7381531,16.9779792 10.7476889,16.304757 C10.7572248,15.6315348 11.3081593,15.0921208 11.9814328,15.0968121 C12.6547062,15.1015033 13.1980706,15.6485422 13.1982241,16.3218319 C13.1900104,17.0053677 12.6302815,17.553392 11.9467248,17.547161 L11.9467248,17.547161 Z M15.3049303,10.6139107 C14.8577701,11.2082184 14.3306248,11.7378799 13.7384531,12.1878651 C13.4315159,12.4123315 13.1706726,12.6938011 12.970169,13.0169016 C12.8483999,13.3774892 12.8016444,13.7591666 12.8327751,14.1384843 L11.0569359,14.1384843 C11.0569359,13.8823896 11.0494587,13.7263027 11.0494587,13.6711582 C11.0313695,13.1808632 11.1290299,12.6932018 11.3345276,12.2476829 C11.6286164,11.7579241 12.0171814,11.331551 12.4776073,10.9933796 C12.8444467,10.7173024 13.1882806,10.4119154 13.5057247,10.0802243 C13.6736387,9.86538266 13.7647829,9.60050492 13.7646234,9.32782927 C13.7652865,8.95045052 13.5977423,8.5924061 13.3075785,8.35111769 C12.9612114,8.06487822 12.5196828,7.91970442 12.0710336,7.94454398 C11.6161001,7.92984806 11.1713289,8.08098389 10.8195342,8.36981074 C10.4688378,8.72399269 10.2285581,9.1724066 10.1278916,9.66056548 C10.0643352,10.0250798 8.30905832,10.1783628 8.32962068,9.44185686 C8.38206673,8.62026753 8.76594519,7.85520922 9.39325492,7.3220656 C10.1182256,6.71781666 11.0432348,6.40703491 11.9859802,6.45096971 C12.9598368,6.39945149 13.9177256,6.71419113 14.6712361,7.33328141 C15.2952243,7.83453266 15.6615671,8.58917137 15.6694448,9.38951633 C15.669614,9.82441434 15.5429367,10.24992 15.3049303,10.6139107 L15.3049303,10.6139107 Z" id="Shape"></path>
                </g>
            </g>
        </g>
    </g>
</svg>