<?xml version="1.0" encoding="UTF-8"?>
<svg width="16px" height="16px" viewBox="0 0 16 16" version="1.1" xmlns="http://www.w3.org/2000/svg" xmlns:xlink="http://www.w3.org/1999/xlink">
    <!-- Generator: Sketch 56.3 (81716) - https://sketch.com -->
    <title>category_ranking备份</title>
    <desc>Created with Sketch.</desc>
    <g id="category_ranking备份" stroke="none" stroke-width="1" fill="none" fill-rule="evenodd">
        <g id="ranking-normal" transform="translate(1.000000, 1.000000)">
            <g id="图层_1">
                <g id="Group">
                    <path d="M13.2276316,3.71233333 C12.6828947,3.71233333 12.2407895,4.14788889 12.2407895,4.68455556 C12.2407895,4.83855556 12.2842105,4.97855556 12.3489474,5.10766667 L9.61263158,7.49933333 L7.47315789,1.86355556 C7.82368421,1.71422222 8.06921053,1.372 8.06921053,0.972222222 C8.06921053,0.435555556 7.62710526,-4.88498131e-14 7.08236842,-4.88498131e-14 C6.53763158,-4.88498131e-14 6.09552632,0.435555556 6.09552632,0.972222222 C6.09552632,1.372 6.34105263,1.71422222 6.69157895,1.86355556 L4.56078947,7.49933333 L1.84736842,5.13411111 C1.92078947,4.998 1.97368421,4.84944444 1.97368421,4.68455556 C1.97368421,4.14788889 1.53157895,3.71233333 0.986842105,3.71233333 C0.442105263,3.71233333 -3.64153152e-14,4.14788889 -3.64153152e-14,4.68455556 C-3.64153152e-14,5.187 0.391578947,5.586 0.888157895,5.63733333 L2.355,12.1403333 C2.39526316,12.3176667 2.55552632,12.4444444 2.74026316,12.4444444 L11.4244737,12.4444444 C11.6092105,12.4444444 11.7702632,12.3176667 11.8097368,12.1395556 L13.2742105,5.64744444 C13.7960526,5.62177778 14.2136842,5.20488889 14.2136842,4.68455556 C14.2144737,4.14788889 13.7723684,3.71233333 13.2276316,3.71233333 L13.2276316,3.71233333 Z" id="Shape" fill="#FFFFFF"></path>
                    <path d="M11.4473684,14 C11.6652632,14 11.8421053,13.8257778 11.8421053,13.6111111 C11.8421053,13.3964444 11.6652632,13.2222222 11.4473684,13.2222222 L2.76315789,13.2222222 C2.54526316,13.2222222 2.36842105,13.3964444 2.36842105,13.6111111 C2.36842105,13.8257778 2.54526316,14 2.76315789,14 L11.4473684,14 L11.4473684,14 Z" id="Shape" fill="#C5CFE0"></path>
                </g>
            </g>
        </g>
    </g>
</svg>