<?xml version="1.0" encoding="UTF-8"?>
<svg width="14px" height="14px" viewBox="0 0 14 14" version="1.1" xmlns="http://www.w3.org/2000/svg" xmlns:xlink="http://www.w3.org/1999/xlink">
    <title>点赞</title>
    <g id="Page-1" stroke="none" stroke-width="1" fill="none" fill-rule="evenodd">
        <g id="应用详情-bug助手" transform="translate(-1059.000000, -757.000000)" fill="#999999" fill-rule="nonzero">
            <g id="评论列表" transform="translate(229.000000, 469.000000)">
                <g id="card1备份-7" transform="translate(0.000000, 131.000000)">
                    <g id="形状" transform="translate(830.000000, 157.000000)">
                        <path d="M2.01803545,4.93217002 L3.2947513,4.93217002 L3.2947513,13.1249025 L2.01803545,13.1249025 C0.906056704,13.1249025 0,12.485869 0,11.7075625 L0,6.34952278 C0,5.57121371 0.906056704,4.93217002 2.01803545,4.93217002 L2.01803545,4.93217002 Z M12.2152857,4.57988324 L12.2152857,4.57988324 C12.7584447,4.58117533 13.2723774,4.82473647 13.6155602,5.2434939 L13.6155603,5.24349405 C13.9521285,5.65628886 14.076901,6.20113033 13.9532728,6.71819153 L12.7424515,11.7813046 L12.7424515,11.7813046 C12.5412549,12.5759301 11.8200639,13.1308409 10.9962288,13.1249536 L4.11843693,13.1249536 L4.11843693,4.80928149 L4.11843693,4.80928146 C4.56041853,4.71620037 4.94457232,4.44666136 5.18099388,4.06374245 L5.1809938,4.06374261 C5.47382943,3.45807395 5.64452779,2.80120777 5.68344341,2.13026175 C5.76581223,1.31098851 5.88936545,0.606409827 6.39181507,0.229541981 L6.3918151,0.229541958 C6.65575427,0.0399519124 6.98497335,-0.0367495317 7.30610879,0.0165295303 L7.30610899,0.016529552 C8.04632421,0.097497115 8.70072635,0.531425903 9.06056608,1.17989674 L9.06056611,1.1798968 C9.36316318,1.78285971 9.48333914,2.4602067 9.40651559,3.12977101 L9.40651566,3.12977043 C9.35339097,3.62575995 9.23714459,4.11303111 9.06056746,4.57988428 L12.2152857,4.57988324 Z"></path>
                    </g>
                </g>
            </g>
        </g>
    </g>
</svg>