<?xml version="1.0" encoding="UTF-8"?>
<svg width="15px" height="14px" viewBox="0 0 15 14" version="1.1" xmlns="http://www.w3.org/2000/svg" xmlns:xlink="http://www.w3.org/1999/xlink">
    <!-- Generator: Sketch 56.3 (81716) - https://sketch.com -->
    <title>screen-icon</title>
    <desc>Created with Sketch.</desc>
    <g id="Page-1" stroke="none" stroke-width="1" fill="none" fill-rule="evenodd">
        <g id="我的应用-卸载应用" transform="translate(-1111.000000, -136.000000)" fill="#2CA7F8" fill-rule="nonzero">
            <g id="标题栏" transform="translate(229.000000, 125.000000)">
                <g id="Group" transform="translate(687.000000, 11.000000)">
                    <g id="screen-icon" transform="translate(195.000000, 0.000000)">
                        <path d="M13.6548675,0.341456876 C13.5505532,0.130764328 13.3333201,-0.00200665151 13.0962308,0 L0.617272294,0 C0.383144032,0.00110485752 0.169865826,0.133404233 0.0668508227,0.341456876 C-0.0398688231,0.5459712 -0.0174558642,0.793105246 0.124357543,0.975548448 L4.93027639,7.31646425 L4.93027639,11.2023075 C4.93027639,11.5390374 5.20613321,11.812011 5.54641983,11.812011 C5.88670646,11.812011 6.16256328,11.5390374 6.16256328,11.2023075 L6.16256328,7.13761791 C6.15929753,7.00624106 6.11638071,6.87883629 6.03933459,6.77179585 L1.85777443,1.21942983 L11.8557287,1.21942983 L7.65773802,6.69863144 C7.5772097,6.8038884 7.53390792,6.93243595 7.53450933,7.0644535 L7.53450933,13.1045823 C7.53450933,13.4413122 7.81036614,13.7142857 8.15065277,13.7142857 C8.4909394,13.7142857 8.76679621,13.4413122 8.76679621,13.1045823 L8.76679621,7.31646425 L13.5891456,0.975548448 C13.7280508,0.79254621 13.7533403,0.548551102 13.6548675,0.341456876 Z" id="Shape"></path>
                        <path d="M14.3867818,9 L10.4703611,9 C10.13169,9 9.85714288,9.25929456 9.85714288,9.57915058 C9.85714288,9.8990066 10.13169,10.1583012 10.4703611,10.1583012 L14.3867818,10.1583012 C14.7254528,10.1583012 15,9.8990066 15,9.57915058 C15,9.25929456 14.7254528,9 14.3867818,9 Z M13.4138088,11.2702703 L10.4703611,11.2702703 C10.13169,11.2702703 9.85714286,11.5295648 9.85714286,11.8494208 C9.85714286,12.1692769 10.13169,12.4285714 10.4703611,12.4285714 L13.4138088,12.4285714 C13.7524799,12.4285714 14.0270271,12.1692769 14.0270271,11.8494208 C14.0270271,11.5295648 13.7524799,11.2702703 13.4138088,11.2702703 L13.4138088,11.2702703 Z" id="Shape"></path>
                    </g>
                </g>
            </g>
        </g>
    </g>
</svg>